<?xml version="1.0" standalone="no"?>
<!DOCTYPE svg PUBLIC "-//W3C//DTD SVG 20010904//EN"
 "http://www.w3.org/TR/2001/REC-SVG-20010904/DTD/svg10.dtd">
<svg version="1.0" xmlns="http://www.w3.org/2000/svg"
 width="1923.000000pt" height="1923.000000pt" viewBox="0 0 1923.000000 1923.000000"
 preserveAspectRatio="xMidYMid meet">
<metadata>
Created by potrace 1.11, written by Peter Selinger 2001-2013
</metadata>
<g transform="translate(0.000000,1923.000000) scale(0.100000,-0.100000)"
fill="#000000" stroke="none">
<path d="M9298 19225 c-2 -1 -48 -5 -103 -9 -55 -3 -111 -8 -125 -11 -212 -42
-306 -70 -445 -134 -331 -153 -597 -413 -763 -746 -72 -146 -129 -309 -148
-430 -3 -22 -7 -42 -9 -45 -17 -27 -25 -356 -12 -455 8 -61 25 -161 31 -183
62 -223 126 -368 229 -521 91 -135 240 -298 362 -396 28 -22 52 -43 55 -47 3
-3 44 -31 91 -60 205 -129 414 -206 659 -244 41 -6 195 -12 505 -18 121 -3
238 -8 260 -11 22 -3 94 -12 160 -20 66 -9 154 -23 195 -31 41 -9 84 -18 95
-20 11 -2 29 -6 40 -8 181 -37 510 -145 691 -226 76 -34 273 -133 338 -169
107 -60 352 -220 392 -256 7 -5 24 -19 40 -30 34 -25 125 -95 140 -110 7 -5
40 -35 75 -65 35 -30 265 -255 510 -500 l446 -445 100 -200 c105 -211 157
-336 224 -537 65 -198 129 -471 154 -667 4 -25 8 -61 11 -79 5 -38 14 -148 20
-236 5 -82 5 -356 -1 -431 -8 -116 -16 -210 -20 -235 -2 -14 -6 -45 -10 -70
-3 -25 -8 -56 -10 -70 -2 -14 -7 -41 -9 -60 -3 -19 -8 -46 -11 -60 -3 -14 -8
-38 -10 -55 -30 -170 -147 -548 -222 -715 -14 -30 -32 -73 -41 -94 -24 -62
-157 -314 -205 -391 -133 -213 -235 -355 -375 -520 -47 -55 -740 -754 -1539
-1554 l-1454 -1454 -1447 1447 c-851 851 -1489 1498 -1549 1569 -103 122 -232
294 -268 355 -11 17 -23 32 -27 32 -4 0 -8 4 -8 8 0 5 -32 61 -70 125 -238
396 -422 894 -486 1317 -3 19 -7 46 -9 60 -26 151 -34 246 -40 470 -12 450
-15 517 -24 555 -5 22 -13 60 -16 85 -9 64 -77 263 -121 356 -81 172 -179 309
-324 454 -142 142 -198 188 -335 271 -150 92 -304 156 -474 196 -127 29 -170
34 -331 38 -553 12 -1089 -265 -1400 -723 -120 -178 -221 -439 -254 -662 -28
-181 -28 -895 -1 -1130 2 -19 7 -70 10 -113 4 -43 8 -86 10 -96 2 -9 6 -48 9
-86 4 -39 9 -77 11 -85 2 -8 6 -35 9 -60 4 -25 9 -58 12 -75 3 -16 7 -43 9
-60 1 -16 5 -41 9 -55 3 -14 8 -41 11 -60 2 -19 7 -46 10 -60 2 -14 10 -50 16
-80 16 -85 67 -308 85 -373 8 -32 17 -66 19 -75 17 -77 132 -446 169 -547 106
-281 155 -403 207 -513 16 -35 29 -65 29 -67 0 -8 188 -384 224 -450 18 -33
45 -81 59 -106 90 -165 315 -513 448 -694 233 -317 433 -549 729 -846 238
-239 357 -346 655 -588 186 -150 609 -436 835 -564 434 -245 792 -409 1236
-565 208 -74 560 -176 744 -217 296 -66 510 -104 729 -130 30 -4 62 -8 71 -10
10 -2 57 -6 106 -10 49 -4 98 -9 109 -11 59 -11 312 -19 625 -19 437 0 564 8
980 61 87 11 396 64 490 85 130 28 438 106 525 133 6 1 30 8 55 15 143 39 601
202 745 266 472 209 760 362 1125 600 123 80 294 198 385 267 33 24 365 291
390 313 120 105 316 287 389 361 178 182 313 329 421 459 28 33 58 69 67 80
197 236 468 624 635 910 401 686 677 1403 847 2195 26 122 81 455 91 555 4 33
8 71 10 85 4 23 11 89 20 185 28 289 28 1036 0 1265 -2 19 -9 85 -15 145 -47
473 -168 1028 -330 1515 -347 1040 -943 2009 -1711 2779 -186 187 -483 452
-649 581 -25 19 -47 37 -50 41 -21 28 -420 305 -655 455 -206 131 -645 359
-925 479 -360 156 -916 337 -1220 399 -14 3 -90 19 -170 36 -80 17 -156 32
-170 35 -14 2 -70 11 -125 20 -155 25 -197 31 -280 40 -27 3 -66 8 -85 10 -45
6 -116 13 -210 20 -41 4 -97 9 -125 11 -54 5 -772 14 -777 9z"/>
<path d="M9385 14104 c-558 -65 -1031 -319 -1386 -742 -217 -260 -389 -616
-443 -917 -3 -16 -8 -39 -10 -50 -21 -107 -30 -215 -30 -365 0 -131 9 -294 19
-323 2 -7 7 -30 10 -52 10 -70 63 -268 95 -355 67 -182 166 -366 279 -520 81
-109 94 -123 221 -250 110 -110 182 -170 332 -272 79 -55 322 -176 428 -213
84 -30 273 -80 335 -89 23 -4 51 -8 64 -11 135 -26 505 -26 626 0 11 3 33 7
49 10 117 19 360 87 380 106 6 5 17 9 25 9 25 0 271 125 356 180 271 177 512
422 667 680 127 211 222 455 264 678 9 48 18 96 20 107 18 88 24 370 11 505
-67 719 -516 1367 -1162 1681 -184 89 -392 158 -555 183 -19 3 -46 8 -60 10
-129 23 -389 28 -535 10z"/>
<path d="M3413 2238 c3 -453 7 -841 11 -863 6 -40 13 -92 22 -150 19 -120 95
-268 184 -355 180 -177 396 -245 776 -243 363 2 616 105 758 308 76 107 113
212 131 365 3 25 8 61 11 80 3 19 7 405 9 858 l4 822 -242 0 -243 0 -1 -722
c0 -398 -2 -763 -3 -813 -6 -203 -34 -296 -112 -373 -78 -77 -147 -101 -308
-109 -192 -9 -306 30 -404 138 -53 60 -90 138 -102 219 -5 34 -15 1121 -14
1593 l0 67 -241 0 -241 0 5 -822z"/>
<path d="M5932 1863 l3 -1197 228 -1 227 0 0 1198 0 1197 -230 0 -230 0 2
-1197z"/>
<path d="M8189 3028 c-1 -51 -1 -319 0 -358 l1 -35 228 0 227 0 0 210 0 210
-227 3 -228 2 -1 -32z"/>
<path d="M9222 1863 l3 -1197 213 0 c131 -1 217 3 222 9 4 6 8 421 8 923 0
502 1 915 3 917 3 3 289 -1112 304 -1188 2 -10 7 -27 10 -37 3 -10 7 -27 9
-37 2 -10 14 -56 26 -103 12 -47 23 -92 25 -100 17 -82 97 -375 104 -379 11
-7 448 -7 455 0 4 3 80 296 91 349 2 8 13 53 25 100 12 47 23 92 25 100 2 8
15 60 30 114 14 55 27 109 30 120 2 12 45 183 96 381 50 198 111 437 134 530
l43 170 1 -931 c1 -736 4 -933 14 -936 10 -3 363 -2 420 1 16 1 17 65 17 1196
l0 1195 -363 0 -364 0 -108 -412 c-59 -227 -125 -480 -147 -563 -21 -82 -46
-175 -54 -205 -9 -30 -18 -64 -20 -75 -8 -42 -93 -358 -97 -362 -4 -3 -39 115
-52 176 -2 9 -11 43 -20 76 -45 166 -68 255 -80 300 -7 28 -25 95 -40 150 -14
55 -49 183 -76 285 -27 102 -58 217 -69 255 -30 109 -82 307 -89 340 l-7 30
-362 3 -362 2 2 -1197z"/>
<path d="M7405 2986 c-22 -12 -124 -70 -227 -130 -147 -85 -188 -113 -189
-130 -1 -11 -1 -90 -1 -173 l1 -153 -105 0 c-92 0 -104 -2 -105 -17 -6 -97 -2
-343 6 -344 6 -1 48 -3 95 -4 47 -2 90 -3 96 -4 8 -1 11 -136 12 -471 1 -562
5 -627 53 -734 38 -86 149 -163 272 -187 116 -23 284 -10 420 34 66 21 67 22
63 52 -2 16 -7 57 -11 90 -14 135 -26 229 -29 233 -2 1 -23 -5 -47 -13 -71
-26 -160 -30 -197 -11 -62 32 -61 25 -59 542 l2 468 153 0 c130 0 152 2 153
16 1 23 1 312 0 333 -1 15 -15 17 -156 17 l-155 0 -2 304 -3 304 -40 -22z"/>
<path d="M12657 2434 c-1 -1 -25 -5 -52 -8 -28 -3 -65 -10 -83 -15 -17 -5 -32
-8 -32 -6 0 3 -33 -7 -72 -21 -139 -50 -242 -141 -311 -272 -40 -76 -69 -159
-59 -166 4 -2 25 -7 47 -10 22 -4 47 -8 55 -11 8 -2 31 -6 50 -9 19 -3 46 -8
60 -11 14 -3 41 -8 60 -11 19 -3 53 -10 75 -15 22 -4 43 -9 47 -9 4 0 17 19
29 43 48 95 112 150 193 165 56 10 193 6 251 -8 74 -18 118 -60 139 -131 23
-75 21 -136 -3 -149 -19 -9 -221 -64 -276 -74 -26 -5 -163 -33 -205 -42 -14
-3 -36 -7 -50 -10 -83 -16 -253 -78 -305 -112 -87 -56 -173 -163 -192 -237
-24 -97 -29 -129 -28 -180 3 -96 14 -145 51 -220 36 -75 63 -109 135 -167 44
-37 138 -85 178 -93 12 -2 25 -6 29 -9 26 -16 211 -23 292 -11 123 18 263 84
368 173 29 24 55 43 57 41 6 -7 45 -132 45 -145 0 -35 23 -39 238 -38 117 0
215 3 218 7 4 3 0 21 -8 39 -30 64 -56 154 -69 233 -9 56 -13 230 -14 570 -1
468 -2 493 -23 568 -18 67 -63 150 -97 182 -32 30 -95 75 -132 93 -49 26 -166
58 -243 68 -51 7 -357 13 -363 8z m410 -1076 c-6 -155 -17 -203 -62 -261 -94
-125 -298 -182 -421 -119 -160 81 -176 291 -29 377 26 16 103 41 187 61 79 19
184 45 233 58 50 13 92 25 94 25 2 1 1 -63 -2 -141z"/>
<path d="M14880 2419 c-148 -38 -287 -129 -354 -231 -10 -16 -22 -28 -26 -28
-4 0 -7 50 -6 111 0 61 -2 115 -5 120 -3 5 -94 8 -215 7 l-209 -3 0 -1192 0
-1193 28 0 c35 -1 392 -1 415 0 16 0 17 27 16 422 0 233 1 427 4 431 2 5 27
-13 56 -40 144 -139 263 -191 441 -195 187 -4 353 68 490 213 75 79 94 106
140 198 110 219 133 626 50 876 -87 259 -292 458 -520 506 -91 19 -226 18
-305 -2z m168 -371 c56 -25 142 -109 172 -168 49 -96 64 -179 64 -350 0 -143
-7 -199 -35 -284 -35 -104 -94 -173 -189 -222 -48 -25 -66 -29 -140 -29 -70 1
-95 5 -142 27 -118 55 -204 168 -234 307 -3 14 -8 40 -11 56 -4 17 -7 95 -7
175 0 163 15 239 65 326 53 93 159 172 244 182 22 2 41 6 43 7 11 10 130 -10
170 -27z"/>
<path d="M8189 2373 c0 -16 -1 -406 -1 -868 l0 -839 213 -1 c118 0 221 1 229
3 13 3 15 106 15 865 l0 862 -228 3 -227 2 -1 -27z"/>
</g>
</svg>
